{
  "accessors": [
    {
      "bufferView": 2,
      "componentType": 5126,
      "count": 1024,
      "max": [
        0.972150444984436,
        0.9721503853797913,
        0.03884327411651611
      ],
      "min": [
        -0.9721503853797913,
        -0.9721503853797913,
        -0.03884327411651611
      ],
      "type": "VEC3"
    },
    {
      "bufferView": 2,
      "byteOffset": 12288,
      "componentType": 5126,
      "count": 1024,
      "max": [
        0.9996988773345947,
        0.9996988773345947,
        2.6677146252040984e-06
      ],
      "min": [
        -0.9996988773345947,
        -0.9996988773345947,
        -2.6677162168198265e-06
      ],
      "type": "VEC3"
    },
    {
      "bufferView": 3,
      "componentType": 5126,
      "count": 1024,
      "max": [
        0.6895416378974915,
        0.99969881772995,
        1.0,
        1.0
      ],
      "min": [
        -0.6895416378974915,
        -0.99969881772995,
        -1.0,
        1.0
      ],
      "type": "VEC4"
    },
    {
      "bufferView": 1,
      "componentType": 5126,
      "count": 1024,
      "max": [
        0.8304875493049622,
        -0.07126402854919434
      ],
      "min": [
        0.16951248049736023,
        -0.10861334204673767
      ],
      "type": "VEC2"
    },
    {
      "bufferView": 1,
      "byteOffset": 8192,
      "componentType": 5126,
      "count": 1024,
      "max": [
        0.0,
        0.0
      ],
      "min": [
        0.0,
        0.0
      ],
      "type": "VEC2"
    },
    {
      "bufferView": 1,
      "byteOffset": 16384,
      "componentType": 5126,
      "count": 1024,
      "max": [
        0.8304875493049622,
        -0.07126402854919434
      ],
      "min": [
        0.16951248049736023,
        -0.10861334204673767
      ],
      "type": "VEC2"
    },
    {
      "bufferView": 0,
      "componentType": 5125,
      "count": 1536,
      "type": "SCALAR"
    },
    {
      "bufferView": 2,
      "byteOffset": 24576,
      "componentType": 5126,
      "count": 512,
      "max": [
        1.0,
        1.0,
        0.03884327411651611
      ],
      "min": [
        -1.0,
        -1.0,
        -0.03884327411651611
      ],
      "type": "VEC3"
    },
    {
      "bufferView": 2,
      "byteOffset": 30720,
      "componentType": 5126,
      "count": 512,
      "max": [
        0.9996988773345947,
        0.9996988773345947,
        0.0
      ],
      "min": [
        -0.9996988773345947,
        -0.9996988773345947,
        0.0
      ],
      "type": "VEC3"
    },
    {
      "bufferView": 3,
      "byteOffset": 16384,
      "componentType": 5126,
      "count": 512,
      "max": [
        0.9996988773345947,
        0.9996988773345947,
        0.0,
        1.0
      ],
      "min": [
        -0.6895408630371094,
        -0.6895411610603333,
        0.0,
        -1.0
      ],
      "type": "VEC4"
    },
    {
      "bufferView": 1,
      "byteOffset": 24576,
      "componentType": 5126,
      "count": 512,
      "max": [
        0.8399551510810852,
        -0.07126402854919434
      ],
      "min": [
        0.1600448489189148,
        -0.10861334204673767
      ],
      "type": "VEC2"
    },
    {
      "bufferView": 1,
      "byteOffset": 28672,
      "componentType": 5126,
      "count": 512,
      "max": [
        1.2071068286895752,
        0.5388432741165161
      ],
      "min": [
        -0.20710676908493042,
        0.4611567258834839
      ],
      "type": "VEC2"
    },
    {
      "bufferView": 1,
      "byteOffset": 32768,
      "componentType": 5126,
      "count": 512,
      "max": [
        0.8399551510810852,
        -0.07126402854919434
      ],
      "min": [
        0.1600448489189148,
        -0.10861334204673767
      ],
      "type": "VEC2"
    },
    {
      "bufferView": 0,
      "byteOffset": 6144,
      "componentType": 5125,
      "count": 768,
      "type": "SCALAR"
    },
    {
      "bufferView": 2,
      "byteOffset": 36864,
      "componentType": 5126,
      "count": 1016,
      "max": [
        1.0,
        1.0,
        0.03884327411651611
      ],
      "min": [
        -1.0,
        -1.0,
        -0.03884327411651611
      ],
      "type": "VEC3"
    },
    {
      "bufferView": 2,
      "byteOffset": 49056,
      "componentType": 5126,
      "count": 1016,
      "max": [
        1.7278880193316581e-07,
        1.8704143490961283e-17,
        1.0
      ],
      "min": [
        -1.7278880193316581e-07,
        0.0,
        -1.0
      ],
      "type": "VEC3"
    },
    {
      "bufferView": 1,
      "byteOffset": 36864,
      "componentType": 5126,
      "count": 1016,
      "max": [
        0.990654468536377,
        0.9871499538421631
      ],
      "min": [
        0.005520334001630545,
        0.024493426084518433
      ],
      "type": "VEC2"
    },
    {
      "bufferView": 1,
      "byteOffset": 44992,
      "componentType": 5126,
      "count": 1016,
      "max": [
        0.0,
        0.0
      ],
      "min": [
        0.0,
        0.0
      ],
      "type": "VEC2"
    },
    {
      "bufferView": 1,
      "byteOffset": 53120,
      "componentType": 5126,
      "count": 1016,
      "max": [
        0.990654468536377,
        0.9871499538421631
      ],
      "min": [
        0.005520334001630545,
        0.024493426084518433
      ],
      "type": "VEC2"
    },
    {
      "bufferView": 0,
      "byteOffset": 9216,
      "componentType": 5125,
      "count": 1914,
      "type": "SCALAR"
    },
    {
      "bufferView": 2,
      "byteOffset": 61248,
      "componentType": 5126,
      "count": 128,
      "max": [
        0.9721503853797913,
        0.9720542430877686,
        -0.0032054148614406586
      ],
      "min": [
        -0.9721503853797913,
        -0.9721944332122803,
        -0.017440378665924072
      ],
      "type": "VEC3"
    },
    {
      "bufferView": 2,
      "byteOffset": 62784,
      "componentType": 5126,
      "count": 128,
      "max": [
        -1.5199860814441024e-10,
        -0.007321379613131285,
        0.9999732971191406
      ],
      "min": [
        -1.5199860814441024e-10,
        -0.007321379613131285,
        0.9999732971191406
      ],
      "type": "VEC3"
    },
    {
      "bufferView": 1,
      "byteOffset": 61248,
      "componentType": 5126,
      "count": 128,
      "max": [
        0.9011203050613403,
        0.9512603282928467
      ],
      "min": [
        0.09887973219156265,
        0.04873970150947571
      ],
      "type": "VEC2"
    },
    {
      "bufferView": 1,
      "byteOffset": 62272,
      "componentType": 5126,
      "count": 128,
      "max": [
        0.0,
        0.0
      ],
      "min": [
        0.0,
        0.0
      ],
      "type": "VEC2"
    },
    {
      "bufferView": 1,
      "byteOffset": 63296,
      "componentType": 5126,
      "count": 128,
      "max": [
        0.9011203050613403,
        0.9512603282928467
      ],
      "min": [
        0.09887973219156265,
        0.04873970150947571
      ],
      "type": "VEC2"
    },
    {
      "bufferView": 0,
      "byteOffset": 16872,
      "componentType": 5125,
      "count": 378,
      "type": "SCALAR"
    }
  ],
  "asset": {
    "extras": {
      "author": "RenderX (https://sketchfab.com/RenderX)",
      "license": "CC-BY-4.0 (http://creativecommons.org/licenses/by/4.0/)",
      "source": "https://sketchfab.com/3d-models/gold-coin-3d20e14205734658932882393125ca2d",
      "title": "gold coin"
    },
    "generator": "Sketchfab-15.16.0",
    "version": "2.0"
  },
  "bufferViews": [
    {
      "buffer": 0,
      "byteLength": 18384,
      "name": "floatBufferViews",
      "target": 34963
    },
    {
      "buffer": 0,
      "byteLength": 64320,
      "byteOffset": 18384,
      "byteStride": 8,
      "name": "floatBufferViews",
      "target": 34962
    },
    {
      "buffer": 0,
      "byteLength": 64320,
      "byteOffset": 82704,
      "byteStride": 12,
      "name": "floatBufferViews",
      "target": 34962
    },
    {
      "buffer": 0,
      "byteLength": 24576,
      "byteOffset": 147024,
      "byteStride": 16,
      "name": "floatBufferViews",
      "target": 34962
    }
  ],
  "buffers": [
    {
      "byteLength": 171600,
      "uri": "scene.bin"
    }
  ],
  "images": [
    {
      "uri": "textures/Pyramic_design_metallic_surface_material.001_normal.png"
    },
    {
      "uri": "textures/Material.003_baseColor.png"
    },
    {
      "uri": "textures/Material.001_baseColor.png"
    }
  ],
  "materials": [
    {
      "doubleSided": true,
      "name": "Pyramic_design_metallic_surface_material.001",
      "normalTexture": {
        "index": 0
      },
      "pbrMetallicRoughness": {
        "baseColorFactor": [
          0.215674,
          0.0698166,
          0.0,
          1.0
        ],
        "metallicFactor": 0.0,
        "roughnessFactor": 0.9785817949892784
      }
    },
    {
      "doubleSided": true,
      "name": "Pyramic_design_metallic_surface_material",
      "normalTexture": {
        "index": 0
      },
      "pbrMetallicRoughness": {
        "baseColorFactor": [
          0.215674,
          0.0698166,
          0.0,
          1.0
        ],
        "metallicFactor": 0.0,
        "roughnessFactor": 0.9785817949892784
      }
    },
    {
      "doubleSided": true,
      "name": "Material.003",
      "pbrMetallicRoughness": {
        "baseColorTexture": {
          "index": 1
        },
        "metallicFactor": 0.0,
        "roughnessFactor": 0.8211145618000169
      }
    },
    {
      "doubleSided": true,
      "name": "Material.001",
      "pbrMetallicRoughness": {
        "baseColorTexture": {
          "index": 2
        },
        "metallicFactor": 0.0,
        "roughnessFactor": 0.8211145618000169
      }
    }
  ],
  "meshes": [
    {
      "name": "coin1_Pyramic design metallic surface material.001_0",
      "primitives": [
        {
          "attributes": {
            "NORMAL": 1,
            "POSITION": 0,
            "TANGENT": 2,
            "TEXCOORD_0": 3,
            "TEXCOORD_1": 4,
            "TEXCOORD_2": 5
          },
          "indices": 6,
          "material": 0,
          "mode": 4
        }
      ]
    },
    {
      "name": "coin1_Pyramic design metallic surface material_0",
      "primitives": [
        {
          "attributes": {
            "NORMAL": 8,
            "POSITION": 7,
            "TANGENT": 9,
            "TEXCOORD_0": 10,
            "TEXCOORD_1": 11,
            "TEXCOORD_2": 12
          },
          "indices": 13,
          "material": 1,
          "mode": 4
        }
      ]
    },
    {
      "name": "coin1_Material.003_0",
      "primitives": [
        {
          "attributes": {
            "NORMAL": 15,
            "POSITION": 14,
            "TEXCOORD_0": 16,
            "TEXCOORD_1": 17,
            "TEXCOORD_2": 18
          },
          "indices": 19,
          "material": 2,
          "mode": 4
        }
      ]
    },
    {
      "name": "coin1_Material.001_0",
      "primitives": [
        {
          "attributes": {
            "NORMAL": 21,
            "POSITION": 20,
            "TEXCOORD_0": 22,
            "TEXCOORD_1": 23,
            "TEXCOORD_2": 24
          },
          "indices": 25,
          "material": 3,
          "mode": 4
        }
      ]
    }
  ],
  "nodes": [
    {
      "children": [
        1
      ],
      "matrix": [
        1.0,
        0.0,
        0.0,
        0.0,
        0.0,
        2.220446049250313e-16,
        -1.0,
        0.0,
        0.0,
        1.0,
        2.220446049250313e-16,
        0.0,
        0.0,
        0.0,
        0.0,
        1.0
      ],
      "name": "Sketchfab_model"
    },
    {
      "children": [
        2
      ],
      "matrix": [
        0.009999999776482582,
        0.0,
        0.0,
        0.0,
        0.0,
        0.0,
        0.009999999776482582,
        0.0,
        0.0,
        -0.009999999776482582,
        0.0,
        0.0,
        0.0,
        0.0,
        0.0,
        1.0
      ],
      "name": "d083d885d6b040c3b3df66446bdad94e.fbx"
    },
    {
      "children": [
        3
      ],
      "name": "RootNode"
    },
    {
      "children": [
        4,
        5,
        6,
        7
      ],
      "matrix": [
        99.25311072981685,
        -3.5803206906090015,
        11.661960135719598,
        0.0,
        -6.276125849674908,
        -96.96090408240856,
        23.647301108582525,
        0.0,
        10.460891968859894,
        -24.202599402059505,
        -96.4614115664874,
        0.0,
        -111.55060577392578,
        2.6701743602752686,
        0.4064924120903015,
        1.0
      ],
      "name": "coin1"
    },
    {
      "mesh": 0,
      "name": "coin1_Pyramic design metallic surface material.001_0"
    },
    {
      "mesh": 1,
      "name": "coin1_Pyramic design metallic surface material_0"
    },
    {
      "mesh": 2,
      "name": "coin1_Material.003_0"
    },
    {
      "mesh": 3,
      "name": "coin1_Material.001_0"
    }
  ],
  "samplers": [
    {
      "magFilter": 9729,
      "minFilter": 9987,
      "wrapS": 10497,
      "wrapT": 10497
    }
  ],
  "scene": 0,
  "scenes": [
    {
      "name": "Sketchfab_Scene",
      "nodes": [
        0
      ]
    }
  ],
  "textures": [
    {
      "sampler": 0,
      "source": 0
    },
    {
      "sampler": 0,
      "source": 1
    },
    {
      "sampler": 0,
      "source": 2
    }
  ]
}
