<svg xmlns="http://www.w3.org/2000/svg" viewBox="0 0 240 120" fill="#a1846f" stroke="#333" stroke-width="1.5">
  <!-- container body -->
  <rect x="8" y="20" width="224" height="86" rx="2"/>
  <!-- corrugated panels -->
  <g stroke="#5a4a3a" stroke-width="1" fill="none">
    <line x1="20" y1="20" x2="20" y2="106"/>
    <line x1="32" y1="20" x2="32" y2="106"/>
    <line x1="44" y1="20" x2="44" y2="106"/>
    <line x1="56" y1="20" x2="56" y2="106"/>
    <line x1="68" y1="20" x2="68" y2="106"/>
    <line x1="80" y1="20" x2="80" y2="106"/>
    <line x1="92" y1="20" x2="92" y2="106"/>
    <line x1="104" y1="20" x2="104" y2="106"/>
    <line x1="116" y1="20" x2="116" y2="106"/>
    <line x1="128" y1="20" x2="128" y2="106"/>
    <line x1="140" y1="20" x2="140" y2="106"/>
    <line x1="152" y1="20" x2="152" y2="106"/>
    <line x1="164" y1="20" x2="164" y2="106"/>
    <line x1="176" y1="20" x2="176" y2="106"/>
    <line x1="188" y1="20" x2="188" y2="106"/>
    <line x1="200" y1="20" x2="200" y2="106"/>
    <line x1="212" y1="20" x2="212" y2="106"/>
  </g>
  <!-- corner castings -->
  <rect x="4" y="16" width="14" height="14" fill="#3a3a3a"/>
  <rect x="222" y="16" width="14" height="14" fill="#3a3a3a"/>
  <rect x="4" y="98" width="14" height="14" fill="#3a3a3a"/>
  <rect x="222" y="98" width="14" height="14" fill="#3a3a3a"/>
</svg>
