<svg xmlns="http://www.w3.org/2000/svg" viewBox="0 0 100 300" fill="#7a9a8a" stroke="#3a4a3a" stroke-width="1">
  <!-- pedestal base -->
  <rect x="20" y="240" width="60" height="50" fill="#a08868"/>
  <!-- pedestal top step -->
  <rect x="26" y="232" width="48" height="8" fill="#bba078"/>
  <!-- robe / body -->
  <path d="M40 232 L40 168 Q40 160 48 158 L52 158 Q60 160 60 168 L60 232 Z"/>
  <!-- arms: torch arm raised right, tablet arm folded left -->
  <path d="M58 168 L70 110 L78 90 Q80 88 82 90 L80 100 L74 124 L66 168 Z"/>
  <path d="M42 168 L34 184 L30 200 L36 202 L40 188 Z"/>
  <!-- torch flame -->
  <path d="M76 92 Q82 76 78 64 Q86 76 84 90 Z" fill="#e6c060"/>
  <!-- head -->
  <ellipse cx="50" cy="148" rx="9" ry="11"/>
  <!-- crown spikes -->
  <polygon points="38,138 41,128 44,138"/>
  <polygon points="44,136 47,124 50,136"/>
  <polygon points="50,134 53,122 56,134"/>
  <polygon points="56,136 59,124 62,136"/>
  <polygon points="62,138 65,128 68,138"/>
  <!-- tablet -->
  <rect x="32" y="186" width="14" height="20" fill="#5a7a6a"/>
</svg>
