<svg xmlns="http://www.w3.org/2000/svg" viewBox="0 0 200 200" fill="#888" stroke="#333" stroke-width="1.5">
  <!-- roof -->
  <polygon points="20,86 100,30 180,86" fill="#5a3a2a"/>
  <!-- chimney -->
  <rect x="146" y="46" width="14" height="40" fill="#7a3a2a"/>
  <!-- house body -->
  <rect x="32" y="86" width="136" height="100" fill="#d4d4d8"/>
  <!-- door -->
  <rect x="86" y="138" width="28" height="48" fill="#5a3a2a"/>
  <circle cx="108" cy="162" r="1.5" fill="#333"/>
  <!-- ground floor windows -->
  <rect x="44" y="106" width="28" height="22" fill="#aac"/>
  <line x1="58" y1="106" x2="58" y2="128"/>
  <line x1="44" y1="117" x2="72" y2="117"/>
  <rect x="128" y="106" width="28" height="22" fill="#aac"/>
  <line x1="142" y1="106" x2="142" y2="128"/>
  <line x1="128" y1="117" x2="156" y2="117"/>
  <!-- upper windows -->
  <rect x="50" y="148" width="22" height="22" fill="#aac"/>
  <line x1="61" y1="148" x2="61" y2="170"/>
  <line x1="50" y1="159" x2="72" y2="159"/>
  <rect x="128" y="148" width="22" height="22" fill="#aac"/>
  <line x1="139" y1="148" x2="139" y2="170"/>
  <line x1="128" y1="159" x2="150" y2="159"/>
</svg>
